<svg version="1.1" id="Layer_1" xmlns="http://www.w3.org/2000/svg" xmlns:xlink="http://www.w3.org/1999/xlink" x="0px" y="0px"
	 width="100%" viewBox="0 0 1000 1000" enable-background="new 0 0 1000 1000" xml:space="preserve">
<path fill="#D10022" opacity="1.000000" stroke="none" 
	d="
M544.000000,1001.000000 
	C515.645752,1001.000000 487.291534,1001.000000 458.588074,1000.577515 
	C457.560089,999.780273 456.910645,999.152954 456.198090,999.070374 
	C449.822205,998.331970 443.374176,998.043091 437.062897,996.953003 
	C417.706512,993.609741 398.045074,991.274780 379.165131,986.119995 
	C354.744995,979.452515 330.591064,971.393005 307.027344,962.138245 
	C288.298737,954.782593 269.987122,945.818726 252.658234,935.590332 
	C232.974762,923.972229 214.218811,910.659546 195.767288,897.119202 
	C182.676651,887.512878 170.216217,876.877014 158.462601,865.664917 
	C145.168167,852.983093 132.678497,839.411804 120.412064,825.713989 
	C112.022934,816.345886 104.348213,806.297974 96.825043,796.203064 
	C82.622810,777.145813 70.119614,756.980042 59.003685,735.969482 
	C42.547325,704.864685 29.210533,672.485779 19.852659,638.539246 
	C16.296761,625.639832 12.523787,612.724731 10.208626,599.577515 
	C7.110689,581.985046 5.357574,564.156616 2.920268,546.444214 
	C2.798351,545.558167 1.663306,544.811523 0.999999,544.000000 
	C1.000000,515.645752 1.000000,487.291534 1.423325,458.581055 
	C2.207291,457.712219 2.826906,457.229584 2.890019,456.682709 
	C3.963674,447.379578 4.615711,438.012909 6.070399,428.772003 
	C8.282197,414.721527 10.437933,400.615234 13.694841,386.786346 
	C19.924887,360.333496 28.249020,334.536407 38.694267,309.367615 
	C50.441574,281.061340 64.672066,254.140167 81.148125,228.373947 
	C95.911865,205.285553 112.412849,183.387085 131.329391,163.631256 
	C148.388443,145.815338 166.166016,128.471329 185.184677,112.811310 
	C202.664688,98.418221 221.866241,85.996300 240.946655,73.694405 
	C269.722107,55.141739 300.628052,40.649784 333.027435,29.633558 
	C351.276031,23.428791 369.706818,17.297331 388.519135,13.333014 
	C410.773651,8.643333 433.530273,6.340987 456.054993,2.909954 
	C456.783386,2.799007 457.355194,1.659856 458.000000,1.000006 
	C486.354218,1.000000 514.708435,1.000000 543.416992,1.423161 
	C548.387878,2.562512 553.004395,3.279670 557.621155,3.994726 
	C572.672180,6.325839 587.892090,7.893254 602.732544,11.176033 
	C622.163757,15.474291 641.461609,20.581657 660.498352,26.385477 
	C673.601990,30.380440 686.426880,35.574394 698.906311,41.263432 
	C716.106445,49.104439 733.470337,56.902027 749.655334,66.573616 
	C769.573547,78.476036 788.683777,91.827797 807.499512,105.442696 
	C819.330200,114.003281 830.457764,123.692963 841.057190,133.763962 
	C861.568176,153.252426 880.968994,173.771622 898.139954,196.412918 
	C914.515442,218.005356 929.215454,240.581650 942.077881,264.386719 
	C959.190613,296.058044 972.602356,329.257965 982.370361,363.890991 
	C985.959351,376.615723 989.533203,389.424072 991.798096,402.423523 
	C994.865479,420.027985 996.642883,437.856323 999.080261,455.573975 
	C999.201294,456.454041 1000.336792,457.194550 1001.000000,458.000000 
	C1001.000000,486.354218 1001.000000,514.708435 1000.577515,543.411743 
	C999.780457,544.439026 999.159729,545.085510 999.067627,545.800171 
	C997.347290,559.149353 996.483704,572.666382 993.837341,585.825745 
	C989.625305,606.770386 985.239807,627.782715 979.052795,648.198120 
	C973.096252,667.852783 965.345093,687.035217 957.286316,705.958374 
	C950.866333,721.033325 943.749146,735.987061 935.228333,749.949097 
	C923.319763,769.462097 910.255798,788.319946 896.839355,806.844910 
	C888.185669,818.793579 878.707520,830.325867 868.361816,840.825989 
	C852.806824,856.613220 836.608337,871.841553 819.845520,886.338623 
	C807.389099,897.111389 793.928528,906.822876 780.313416,916.126221 
	C768.164368,924.427734 755.310181,931.729309 742.553406,939.102295 
	C720.399902,951.906311 697.264404,962.769836 673.028564,970.918701 
	C653.541260,977.470825 633.747803,983.229858 613.840210,988.373108 
	C600.580078,991.798950 586.918762,993.763550 573.364075,995.925171 
	C564.292969,997.371765 555.089050,997.977173 545.961365,999.095154 
	C545.240662,999.183472 544.650757,1000.339966 544.000000,1001.000000 
M240.800766,336.195160 
	C239.551041,355.312622 238.263565,374.427734 237.059433,393.548065 
	C234.577744,432.955048 232.172119,472.366882 229.676727,511.772980 
	C226.844406,556.499451 223.934937,601.221008 221.083481,645.946289 
	C218.475845,686.847229 215.893921,727.749878 213.318756,768.652893 
	C212.925522,774.899048 212.629898,781.151489 212.287064,787.438721 
	C265.484222,787.438721 318.192993,787.438721 371.251740,787.438721 
	C371.546783,646.758301 377.185455,506.402710 365.194092,366.244293 
	C365.727600,366.209381 366.261139,366.174469 366.794647,366.139557 
	C385.282410,487.066040 403.770172,607.992554 422.266998,728.978210 
	C474.680328,728.978210 526.621277,728.978210 578.903687,728.978210 
	C595.966248,608.787048 613.007263,488.747955 630.048279,368.708923 
	C630.492004,368.734894 630.935791,368.760895 631.379517,368.786865 
	C625.593872,508.377930 629.570862,647.985168 628.984314,787.447876 
	C683.122131,787.447876 736.357544,787.447876 789.805420,787.447876 
	C777.717468,596.247559 765.653809,405.431000 753.586487,214.556671 
	C684.866821,214.556671 616.651550,214.556671 548.346191,214.556671 
	C533.410034,337.539825 518.517517,460.163605 503.625031,582.787415 
	C503.221588,582.783630 502.818176,582.779846 502.414734,582.776062 
	C485.610352,460.026855 468.806000,337.277649 451.989838,214.442383 
	C384.033112,214.442383 316.447662,214.442383 248.381943,214.442383 
	C245.863907,254.865768 243.360138,295.060150 240.800766,336.195160 
z"/>
<path fill="#000000" opacity="1.000000" stroke="none" 
	d="
M0.999999,544.468628 
	C1.663306,544.811523 2.798351,545.558167 2.920268,546.444214 
	C5.357574,564.156616 7.110689,581.985046 10.208626,599.577515 
	C12.523787,612.724731 16.296761,625.639832 19.852659,638.539246 
	C29.210533,672.485779 42.547325,704.864685 59.003685,735.969482 
	C70.119614,756.980042 82.622810,777.145813 96.825043,796.203064 
	C104.348213,806.297974 112.022934,816.345886 120.412064,825.713989 
	C132.678497,839.411804 145.168167,852.983093 158.462601,865.664917 
	C170.216217,876.877014 182.676651,887.512878 195.767288,897.119202 
	C214.218811,910.659546 232.974762,923.972229 252.658234,935.590332 
	C269.987122,945.818726 288.298737,954.782593 307.027344,962.138245 
	C330.591064,971.393005 354.744995,979.452515 379.165131,986.119995 
	C398.045074,991.274780 417.706512,993.609741 437.062897,996.953003 
	C443.374176,998.043091 449.822205,998.331970 456.198090,999.070374 
	C456.910645,999.152954 457.560089,999.780273 458.119385,1000.577515 
	C305.739594,1001.000000 153.479172,1001.000000 1.000000,1001.000000 
	C1.000000,848.979187 1.000000,696.958252 0.999999,544.468628 
z"/>
<path fill="#000000" opacity="1.000000" stroke="none" 
	d="
M544.468689,1001.000000 
	C544.650757,1000.339966 545.240662,999.183472 545.961365,999.095154 
	C555.089050,997.977173 564.292969,997.371765 573.364075,995.925171 
	C586.918762,993.763550 600.580078,991.798950 613.840210,988.373108 
	C633.747803,983.229858 653.541260,977.470825 673.028564,970.918701 
	C697.264404,962.769836 720.399902,951.906311 742.553406,939.102295 
	C755.310181,931.729309 768.164368,924.427734 780.313416,916.126221 
	C793.928528,906.822876 807.389099,897.111389 819.845520,886.338623 
	C836.608337,871.841553 852.806824,856.613220 868.361816,840.825989 
	C878.707520,830.325867 888.185669,818.793579 896.839355,806.844910 
	C910.255798,788.319946 923.319763,769.462097 935.228333,749.949097 
	C943.749146,735.987061 950.866333,721.033325 957.286316,705.958374 
	C965.345093,687.035217 973.096252,667.852783 979.052795,648.198120 
	C985.239807,627.782715 989.625305,606.770386 993.837341,585.825745 
	C996.483704,572.666382 997.347290,559.149353 999.067627,545.800171 
	C999.159729,545.085510 999.780457,544.439026 1000.577515,543.880371 
	C1001.000000,696.260376 1001.000000,848.520813 1001.000000,1001.000000 
	C848.979187,1001.000000 696.958252,1001.000000 544.468689,1001.000000 
z"/>
<path fill="#000000" opacity="1.000000" stroke="none" 
	d="
M457.531342,1.000006 
	C457.355194,1.659856 456.783386,2.799007 456.054993,2.909954 
	C433.530273,6.340987 410.773651,8.643333 388.519135,13.333014 
	C369.706818,17.297331 351.276031,23.428791 333.027435,29.633558 
	C300.628052,40.649784 269.722107,55.141739 240.946655,73.694405 
	C221.866241,85.996300 202.664688,98.418221 185.184677,112.811310 
	C166.166016,128.471329 148.388443,145.815338 131.329391,163.631256 
	C112.412849,183.387085 95.911865,205.285553 81.148125,228.373947 
	C64.672066,254.140167 50.441574,281.061340 38.694267,309.367615 
	C28.249020,334.536407 19.924887,360.333496 13.694841,386.786346 
	C10.437933,400.615234 8.282197,414.721527 6.070399,428.772003 
	C4.615711,438.012909 3.963674,447.379578 2.890019,456.682709 
	C2.826906,457.229584 2.207291,457.712219 1.423325,458.112366 
	C1.000000,305.739594 1.000000,153.479172 1.000000,1.000000 
	C153.020828,1.000000 305.041748,1.000000 457.531342,1.000006 
z"/>
<path fill="#000000" opacity="1.000000" stroke="none" 
	d="
M1001.000000,457.531342 
	C1000.336792,457.194550 999.201294,456.454041 999.080261,455.573975 
	C996.642883,437.856323 994.865479,420.027985 991.798096,402.423523 
	C989.533203,389.424072 985.959351,376.615723 982.370361,363.890991 
	C972.602356,329.257965 959.190613,296.058044 942.077881,264.386719 
	C929.215454,240.581650 914.515442,218.005356 898.139954,196.412918 
	C880.968994,173.771622 861.568176,153.252426 841.057190,133.763962 
	C830.457764,123.692963 819.330200,114.003281 807.499512,105.442696 
	C788.683777,91.827797 769.573547,78.476036 749.655334,66.573616 
	C733.470337,56.902027 716.106445,49.104439 698.906311,41.263432 
	C686.426880,35.574394 673.601990,30.380440 660.498352,26.385477 
	C641.461609,20.581657 622.163757,15.474291 602.732544,11.176033 
	C587.892090,7.893254 572.672180,6.325839 557.621155,3.994726 
	C553.004395,3.279670 548.387878,2.562512 543.885620,1.423161 
	C696.260376,1.000000 848.520813,1.000000 1001.000000,1.000000 
	C1001.000000,153.020828 1001.000000,305.041748 1001.000000,457.531342 
z"/>
<path fill="#FFFEFE" opacity="1.000000" stroke="none" 
	d="
M240.828568,335.724854 
	C243.360138,295.060150 245.863907,254.865768 248.381943,214.442383 
	C316.447662,214.442383 384.033112,214.442383 451.989838,214.442383 
	C468.806000,337.277649 485.610352,460.026855 502.414734,582.776062 
	C502.818176,582.779846 503.221588,582.783630 503.625031,582.787415 
	C518.517517,460.163605 533.410034,337.539825 548.346191,214.556671 
	C616.651550,214.556671 684.866821,214.556671 753.586487,214.556671 
	C765.653809,405.431000 777.717468,596.247559 789.805420,787.447876 
	C736.357544,787.447876 683.122131,787.447876 628.984314,787.447876 
	C629.570862,647.985168 625.593872,508.377930 631.379517,368.786865 
	C630.935791,368.760895 630.492004,368.734894 630.048279,368.708923 
	C613.007263,488.747955 595.966248,608.787048 578.903687,728.978210 
	C526.621277,728.978210 474.680328,728.978210 422.266998,728.978210 
	C403.770172,607.992554 385.282410,487.066040 366.794647,366.139557 
	C366.261139,366.174469 365.727600,366.209381 365.194092,366.244293 
	C377.185455,506.402710 371.546783,646.758301 371.251740,787.438721 
	C318.192993,787.438721 265.484222,787.438721 212.287064,787.438721 
	C212.629898,781.151489 212.925522,774.899048 213.318756,768.652893 
	C215.893921,727.749878 218.475845,686.847229 221.083481,645.946289 
	C223.934937,601.221008 226.844406,556.499451 229.676727,511.772980 
	C232.172119,472.366882 234.577744,432.955048 237.059433,393.548065 
	C238.263565,374.427734 239.551041,355.312622 240.828568,335.724854 
z"/>
</svg>